<svg xmlns="http://www.w3.org/2000/svg" viewBox="0 0 1600 900" role="img" aria-labelledby="title desc">
  <title id="title">Abstract network background</title>
  <desc id="desc">A light geometric background with connecting lines and dots for a portfolio hero section.</desc>
  <defs>
    <style>
      .line { fill: none; stroke: #2f3545; stroke-opacity: 0.16; stroke-width: 1.5; }
      .line-soft { fill: none; stroke: #2f3545; stroke-opacity: 0.08; stroke-width: 1.2; }
      .node { fill: #202735; fill-opacity: 0.42; }
      .node-soft { fill: #202735; fill-opacity: 0.18; }
    </style>
  </defs>
  <rect width="1600" height="900" fill="#efeff2" />

  <g>
    <path class="line" d="M70 110 L165 145 L182 230 L118 290 L40 250" />
    <path class="line-soft" d="M165 145 L278 90 L342 165 L285 248 L182 230" />
    <path class="line-soft" d="M342 165 L430 120 L506 182 L448 270 L285 248" />
    <path class="line" d="M506 182 L610 108 L688 174 L640 258 L560 298 L448 270" />
    <path class="line-soft" d="M688 174 L776 120 L840 186 L810 284 L640 258" />
    <path class="line" d="M840 186 L938 116 L1010 174 L980 270 L900 318 L810 284" />
    <path class="line-soft" d="M1010 174 L1138 112 L1225 186 L1170 302 L980 270" />
    <path class="line" d="M1225 186 L1316 126 L1410 198 L1376 292 L1274 336 L1170 302" />
    <path class="line-soft" d="M1410 198 L1512 152 L1560 228 L1494 302 L1376 292" />
  </g>

  <g>
    <path class="line-soft" d="M120 500 L214 448 L310 510 L294 624 L176 662 L90 594" />
    <path class="line" d="M310 510 L414 450 L520 534 L488 650 L380 708 L294 624" />
    <path class="line-soft" d="M520 534 L646 470 L748 558 L706 676 L584 732 L488 650" />
    <path class="line" d="M748 558 L876 492 L968 574 L944 686 L820 746 L706 676" />
    <path class="line-soft" d="M968 574 L1080 508 L1184 584 L1144 706 L1016 760 L944 686" />
    <path class="line" d="M1184 584 L1310 520 L1412 602 L1376 724 L1244 780 L1144 706" />
    <path class="line-soft" d="M1412 602 L1510 554 L1570 618 L1522 722 L1376 724" />
  </g>

  <g>
    <path class="line-soft" d="M560 42 L612 94 L674 56 L730 118 L704 190" />
    <path class="line" d="M960 34 L1040 82 L1134 62 L1216 112 L1188 172" />
    <path class="line-soft" d="M132 716 L234 768 L338 744 L418 806 L382 878" />
    <path class="line" d="M1122 744 L1216 792 L1328 772 L1424 836 L1392 892" />
  </g>

  <g>
    <circle class="node" cx="70" cy="110" r="4" />
    <circle class="node" cx="165" cy="145" r="6" />
    <circle class="node" cx="182" cy="230" r="5" />
    <circle class="node-soft" cx="118" cy="290" r="4" />
    <circle class="node-soft" cx="278" cy="90" r="4" />
    <circle class="node" cx="342" cy="165" r="6" />
    <circle class="node" cx="430" cy="120" r="4" />
    <circle class="node" cx="506" cy="182" r="5" />
    <circle class="node" cx="610" cy="108" r="4" />
    <circle class="node-soft" cx="688" cy="174" r="5" />
    <circle class="node" cx="776" cy="120" r="4" />
    <circle class="node" cx="840" cy="186" r="5" />
    <circle class="node" cx="938" cy="116" r="4" />
    <circle class="node" cx="1010" cy="174" r="5" />
    <circle class="node-soft" cx="1138" cy="112" r="4" />
    <circle class="node" cx="1225" cy="186" r="6" />
    <circle class="node" cx="1316" cy="126" r="5" />
    <circle class="node" cx="1410" cy="198" r="4" />
    <circle class="node" cx="1512" cy="152" r="4" />
    <circle class="node-soft" cx="1560" cy="228" r="4" />
  </g>

  <g>
    <circle class="node-soft" cx="120" cy="500" r="4" />
    <circle class="node" cx="214" cy="448" r="5" />
    <circle class="node" cx="310" cy="510" r="5" />
    <circle class="node-soft" cx="294" cy="624" r="4" />
    <circle class="node" cx="176" cy="662" r="5" />
    <circle class="node-soft" cx="90" cy="594" r="4" />
    <circle class="node" cx="414" cy="450" r="5" />
    <circle class="node" cx="520" cy="534" r="6" />
    <circle class="node" cx="488" cy="650" r="4" />
    <circle class="node-soft" cx="380" cy="708" r="4" />
    <circle class="node" cx="646" cy="470" r="5" />
    <circle class="node" cx="748" cy="558" r="5" />
    <circle class="node-soft" cx="706" cy="676" r="4" />
    <circle class="node" cx="876" cy="492" r="5" />
    <circle class="node" cx="968" cy="574" r="5" />
    <circle class="node-soft" cx="944" cy="686" r="4" />
    <circle class="node" cx="1080" cy="508" r="5" />
    <circle class="node" cx="1184" cy="584" r="5" />
    <circle class="node" cx="1144" cy="706" r="4" />
    <circle class="node" cx="1310" cy="520" r="5" />
    <circle class="node" cx="1412" cy="602" r="5" />
    <circle class="node-soft" cx="1376" cy="724" r="4" />
    <circle class="node" cx="1510" cy="554" r="5" />
    <circle class="node-soft" cx="1570" cy="618" r="4" />
  </g>

  <g>
    <circle class="node-soft" cx="560" cy="42" r="3" />
    <circle class="node" cx="612" cy="94" r="4" />
    <circle class="node-soft" cx="674" cy="56" r="3" />
    <circle class="node" cx="730" cy="118" r="4" />
    <circle class="node-soft" cx="704" cy="190" r="3" />
    <circle class="node-soft" cx="960" cy="34" r="3" />
    <circle class="node" cx="1040" cy="82" r="4" />
    <circle class="node-soft" cx="1134" cy="62" r="3" />
    <circle class="node" cx="1216" cy="112" r="4" />
    <circle class="node-soft" cx="1188" cy="172" r="3" />
    <circle class="node-soft" cx="132" cy="716" r="3" />
    <circle class="node" cx="234" cy="768" r="4" />
    <circle class="node-soft" cx="338" cy="744" r="3" />
    <circle class="node" cx="418" cy="806" r="4" />
    <circle class="node-soft" cx="382" cy="878" r="3" />
    <circle class="node-soft" cx="1122" cy="744" r="3" />
    <circle class="node" cx="1216" cy="792" r="4" />
    <circle class="node-soft" cx="1328" cy="772" r="3" />
    <circle class="node" cx="1424" cy="836" r="4" />
    <circle class="node-soft" cx="1392" cy="892" r="3" />
  </g>
</svg>
