<svg xmlns="http://www.w3.org/2000/svg" viewBox="0 0 800 500" role="img" aria-labelledby="title1 desc1">
  <title id="title1">Project placeholder one</title>
  <desc id="desc1">Abstract placeholder preview card for a featured project.</desc>
  <defs>
    <linearGradient id="g1" x1="0" x2="1" y1="0" y2="1">
      <stop offset="0%" stop-color="#f4fbfa" />
      <stop offset="100%" stop-color="#dceceb" />
    </linearGradient>
    <linearGradient id="a1" x1="0" x2="1" y1="0" y2="1">
      <stop offset="0%" stop-color="#0f6d68" />
      <stop offset="100%" stop-color="#2d8e88" />
    </linearGradient>
  </defs>
  <rect width="800" height="500" fill="url(#g1)" />
  <circle cx="690" cy="96" r="86" fill="#ffffff" opacity="0.72" />
  <rect x="44" y="42" width="712" height="416" rx="24" fill="#ffffff" opacity="0.88" stroke="#d7e6e4" />
  <rect x="70" y="72" width="220" height="28" rx="14" fill="url(#a1)" opacity="0.85" />
  <rect x="70" y="118" width="300" height="18" rx="9" fill="#dceceb" />
  <rect x="70" y="146" width="256" height="18" rx="9" fill="#e7f1f0" />
  <rect x="70" y="188" width="660" height="176" rx="16" fill="#f1f7f6" stroke="#dfeceb" />
  <rect x="96" y="214" width="200" height="132" rx="12" fill="#d9efec" />
  <rect x="318" y="214" width="120" height="16" rx="8" fill="#c9e6e2" />
  <rect x="318" y="242" width="190" height="16" rx="8" fill="#dfeceb" />
  <rect x="318" y="270" width="156" height="16" rx="8" fill="#dfeceb" />
  <rect x="318" y="330" width="112" height="22" rx="11" fill="url(#a1)" opacity="0.8" />
  <text x="70" y="405" fill="#335759" font-family="Segoe UI, sans-serif" font-size="24" font-weight="700">
    Featured Project Placeholder
  </text>
</svg>
