<svg xmlns="http://www.w3.org/2000/svg" viewBox="0 0 800 500" role="img" aria-labelledby="title2 desc2">
  <title id="title2">Project placeholder two</title>
  <desc id="desc2">Abstract placeholder preview card with dashboard blocks and status widgets.</desc>
  <defs>
    <linearGradient id="g2" x1="0" x2="1" y1="0" y2="1">
      <stop offset="0%" stop-color="#f7fbff" />
      <stop offset="100%" stop-color="#e5eff9" />
    </linearGradient>
    <linearGradient id="a2" x1="0" x2="1" y1="0" y2="1">
      <stop offset="0%" stop-color="#125a84" />
      <stop offset="100%" stop-color="#2f7ca9" />
    </linearGradient>
  </defs>
  <rect width="800" height="500" fill="url(#g2)" />
  <rect x="44" y="38" width="712" height="424" rx="26" fill="#ffffff" opacity="0.94" stroke="#dfe8f2" />
  <rect x="70" y="68" width="660" height="56" rx="16" fill="#f1f6fb" />
  <circle cx="106" cy="96" r="12" fill="url(#a2)" opacity="0.85" />
  <rect x="130" y="86" width="180" height="20" rx="10" fill="#dbe9f6" />
  <rect x="70" y="144" width="214" height="130" rx="16" fill="#eef5fb" />
  <rect x="302" y="144" width="214" height="130" rx="16" fill="#eef5fb" />
  <rect x="534" y="144" width="196" height="130" rx="16" fill="#eef5fb" />
  <rect x="70" y="296" width="460" height="136" rx="16" fill="#f3f8fd" />
  <rect x="548" y="296" width="182" height="136" rx="16" fill="#f3f8fd" />
  <polyline points="92,384 162,332 225,352 296,308 360,330 430,286 510,318" fill="none" stroke="url(#a2)" stroke-width="8" stroke-linecap="round" stroke-linejoin="round" />
  <rect x="572" y="322" width="134" height="18" rx="9" fill="#d9e8f5" />
  <rect x="572" y="352" width="96" height="18" rx="9" fill="#d9e8f5" />
  <rect x="572" y="384" width="74" height="22" rx="11" fill="url(#a2)" opacity="0.82" />
  <text x="70" y="252" fill="#31566f" font-family="Segoe UI, sans-serif" font-size="22" font-weight="700">
    Dashboard / Workflow Placeholder
  </text>
</svg>
