<svg xmlns="http://www.w3.org/2000/svg" viewBox="0 0 800 500" role="img" aria-labelledby="title3 desc3">
  <title id="title3">Project placeholder three</title>
  <desc id="desc3">Abstract placeholder preview card with code-like lines and interface blocks.</desc>
  <defs>
    <linearGradient id="g3" x1="0" x2="1" y1="0" y2="1">
      <stop offset="0%" stop-color="#f9fbf6" />
      <stop offset="100%" stop-color="#edf3e5" />
    </linearGradient>
    <linearGradient id="a3" x1="0" x2="1" y1="0" y2="1">
      <stop offset="0%" stop-color="#6a7c1f" />
      <stop offset="100%" stop-color="#90a539" />
    </linearGradient>
  </defs>
  <rect width="800" height="500" fill="url(#g3)" />
  <circle cx="124" cy="96" r="70" fill="#ffffff" opacity="0.72" />
  <rect x="44" y="42" width="712" height="416" rx="26" fill="#ffffff" opacity="0.94" stroke="#e2e9d9" />
  <rect x="70" y="68" width="308" height="350" rx="18" fill="#f4f7ee" />
  <rect x="400" y="68" width="330" height="160" rx="18" fill="#f4f7ee" />
  <rect x="400" y="248" width="330" height="170" rx="18" fill="#f4f7ee" />
  <rect x="92" y="98" width="140" height="20" rx="10" fill="url(#a3)" opacity="0.8" />
  <rect x="92" y="136" width="220" height="12" rx="6" fill="#dbe6c4" />
  <rect x="92" y="160" width="186" height="12" rx="6" fill="#e6eed6" />
  <rect x="92" y="206" width="260" height="10" rx="5" fill="#d9e4bf" />
  <rect x="92" y="228" width="230" height="10" rx="5" fill="#dfe8cb" />
  <rect x="92" y="250" width="246" height="10" rx="5" fill="#dfe8cb" />
  <rect x="92" y="294" width="198" height="12" rx="6" fill="#dbe6c4" />
  <rect x="92" y="318" width="230" height="12" rx="6" fill="#e6eed6" />
  <rect x="422" y="96" width="136" height="16" rx="8" fill="#dbe6c4" />
  <rect x="422" y="124" width="190" height="16" rx="8" fill="#e6eed6" />
  <rect x="422" y="152" width="148" height="16" rx="8" fill="#e6eed6" />
  <rect x="422" y="274" width="118" height="18" rx="9" fill="url(#a3)" opacity="0.82" />
  <rect x="422" y="306" width="284" height="12" rx="6" fill="#dfe8cb" />
  <rect x="422" y="328" width="250" height="12" rx="6" fill="#e6eed6" />
  <rect x="422" y="350" width="270" height="12" rx="6" fill="#e6eed6" />
  <text x="422" y="392" fill="#5c6d2b" font-family="Segoe UI, sans-serif" font-size="22" font-weight="700">
    Internal Tool / Data UI Placeholder
  </text>
</svg>
